<svg xmlns="http://www.w3.org/2000/svg" version="1.1" xmlns:xlink="http://www.w3.org/1999/xlink" xmlns:svgjs="http://svgjs.dev/svgjs" width="1000" height="999" viewBox="0 0 1000 999"><g transform="matrix(1,0,0,1,-0.215743440233382,-0.21552769679306039)"><svg viewBox="0 0 343 343" data-background-color="#ffffff" preserveAspectRatio="xMidYMid meet" height="999" width="1000" xmlns="http://www.w3.org/2000/svg" xmlns:xlink="http://www.w3.org/1999/xlink"><g id="tight-bounds" transform="matrix(1,0,0,1,0.0740000000000407,0.07400000000001228)"><svg viewBox="0 0 342.85155851775386 342.85155851775386" height="342.85155851775386" width="342.85155851775386"><g><svg></svg></g><g><svg viewBox="0 0 342.85155851775386 342.85155851775386" height="342.85155851775386" width="342.85155851775386"><g><path d="M0 171.426c0-94.676 76.75-171.426 171.426-171.426 94.676 0 171.426 76.75 171.426 171.426 0 94.676-76.75 171.426-171.426 171.426-94.676 0-171.426-76.75-171.426-171.426zM171.426 337.746c91.856 0 166.321-74.464 166.32-166.32 0-91.856-74.464-166.321-166.32-166.321-91.856 0-166.321 74.464-166.321 166.321 0 91.856 74.464 166.321 166.321 166.32z" data-fill-palette-color="tertiary" fill="#ed2647" stroke="transparent"></path><ellipse rx="164.56874808852186" ry="164.56874808852186" cx="171.42577925887693" cy="171.42577925887693" fill="#ed2647" stroke="transparent" stroke-width="0" fill-opacity="1" data-fill-palette-color="tertiary"></ellipse></g><g transform="matrix(1,0,0,1,64.84655864529837,97.32102347947205)"><svg viewBox="0 0 213.1584412271571 148.20951155880977" height="148.20951155880977" width="213.1584412271571"><g><svg viewBox="0 0 213.1584412271571 148.20951155880977" height="148.20951155880977" width="213.1584412271571"><g><svg viewBox="0 0 213.1584412271571 148.20951155880977" height="148.20951155880977" width="213.1584412271571"><g transform="matrix(1,0,0,1,0,91.59942401405944)"><svg viewBox="0 0 213.1584412271571 56.61008754475032" height="56.61008754475032" width="213.1584412271571"><g><svg viewBox="0 0 213.1584412271571 56.61008754475032" height="56.61008754475032" width="213.1584412271571"><g><svg viewBox="0 0 213.1584412271571 56.61008754475032" height="56.61008754475032" width="213.1584412271571"><g transform="matrix(1,0,0,1,0,0)"><svg width="213.1584412271571" viewBox="0.75 -25.5 131.58999633789062 34.95000076293945" height="56.61008754475032" data-palette-color="#ffffff"><path d="M14-16.45L17.25-24.85Q17.45-25.25 19.75-25.25L19.75-25.25Q27.25-25.25 27.05-24.7L27.05-24.7 20.95-12.05Q27.1-0.55 27.1-0.55L27.1-0.55Q27.1-0.25 24.1-0.05 21.1 0.15 19.85 0.15L19.85 0.15Q16.7 0.15 16.5-0.5L16.5-0.5 13.8-8.85 10.7-0.15Q10.6 0.2 7.85 0.2 5.1 0.2 2.95 0 0.8-0.2 1-0.5L1-0.5 6.65-12Q0.75-24.35 0.75-24.4L0.75-24.4Q0.75-24.7 2.27-24.95 3.8-25.2 5.73-25.2 7.65-25.2 9.4-25.03 11.15-24.85 11.35-24.55L11.35-24.55 14-16.45ZM29.85-9.95L29.85-24.7Q29.85-25.25 34.15-25.25 38.45-25.25 38.45-24.7L38.45-24.7 38.45-10.1Q38.45-7.6 40.05-7.6L40.05-7.6Q41.25-7.6 42.75-8.65L42.75-8.65 42.75-24.7Q42.75-25.2 47-25.2 51.25-25.2 51.25-24.7L51.25-24.7 51.25-8.3 52.55-8.3Q54.25-8.3 54.25-5.05L54.25-5.05Q54.25-3.4 53.55-1.7L53.55-1.7Q52.55 0.5 50.85 0.5L50.85 0.5Q47.5 0.5 45.9-2.25L45.9-2.25 45.85-2.2Q42.8 0.5 39.3 0.5L39.3 0.5Q34.45 0.5 32.15-1.93 29.85-4.35 29.85-9.95L29.85-9.95ZM68.05 0L68.05 9.1Q68.05 9.45 63.77 9.45 59.5 9.45 59.5 9.1L59.5 9.1 59.5-16.65 57.8-16.65Q56.59-16.65 56.15-18.85L56.15-18.85Q56-19.55 56-20.65 56-21.75 56.7-23.25L56.7-23.25Q57.7-25.45 59.9-25.45L59.9-25.45Q61.34-25.45 62.57-24.78 63.8-24.1 64.27-23.53 64.75-22.95 64.75-22.85L64.75-22.85Q68.09-25.45 72-25.45 75.9-25.45 78.7-22.43 81.5-19.4 81.5-13.08 81.5-6.75 78.7-3.28 75.9 0.2 71.59 0.2L71.59 0.2Q69.65 0.2 68.05 0L68.05 0ZM70.09-16.7L70.09-16.7Q69.25-16.7 68.45-16.15L68.45-16.15 68.45-7.3Q69.3-7.2 69.82-7.2 70.34-7.2 70.65-7.2L70.65-7.2Q72.7-7.4 72.7-12.45L72.7-12.45Q72.7-16.7 70.09-16.7ZM103.94-1.35L103.94-1.35Q100.79 0.5 95.84 0.5 90.89 0.5 87.49-2.88 84.09-6.25 84.09-12.23 84.09-18.2 87.37-21.85 90.64-25.5 95.64-25.5 100.64-25.5 103.37-22.95 106.09-20.4 106.09-16.75L106.09-16.75Q106.09-8.65 96.79-8.65L96.79-8.65 93.34-8.65Q93.34-7.15 94.17-6.58 94.99-6 96.59-6L96.59-6Q100.09-6 103.24-7.6L103.24-7.6Q103.29-7.65 103.69-6.9L103.69-6.9Q104.89-4.75 104.89-3.28 104.89-1.8 103.94-1.35ZM97.69-15.8L97.69-15.8Q97.69-17.9 95.64-17.9L95.64-17.9Q94.69-17.9 94.02-17.32 93.34-16.75 93.34-15.65L93.34-15.65 93.34-14.1 96.04-14.1Q97.69-14.1 97.69-15.8ZM112.49-18.15L112.49-18.15Q111.09-20.65 111.09-22.23 111.09-23.8 111.94-24.25L111.94-24.25Q114.79-25.5 119.77-25.5 124.74-25.5 126.79-23.18 128.84-20.85 128.84-16.3L128.84-16.3 128.84-8.4 130.54-8.4Q131.39-8.4 131.87-7.4 132.34-6.4 132.34-4.65 132.34-2.9 131.47-1.2 130.59 0.5 129.09 0.5L129.09 0.5Q126.39 0.5 124.74-0.95L124.74-0.95Q123.99-1.55 123.59-2.4L123.59-2.4Q121.29 0.5 116.44 0.5L116.44 0.5Q112.79 0.5 110.29-2.1 107.79-4.7 107.79-8.25L107.79-8.25Q107.79-16.4 117.54-16.4L117.54-16.4 120.29-16.4 120.29-16.9Q120.29-18.2 119.87-18.57 119.44-18.95 117.89-18.95L117.89-18.95Q115.99-18.95 112.49-18.15ZM116.49-8.95L116.49-8.95Q116.49-7.85 117.09-7.28 117.69-6.7 118.62-6.7 119.54-6.7 120.29-7.45L120.29-7.45 120.29-11.3 118.89-11.3Q116.49-11.3 116.49-8.95Z" opacity="1" transform="matrix(1,0,0,1,0,0)" fill="#ffffff" class="undefined-text-0" data-fill-palette-color="quaternary" id="text-0"></path></svg></g></svg></g></svg></g></svg></g><g transform="matrix(1,0,0,1,66.06070071934805,0)"><svg viewBox="0 0 81.03703978846102 78.23514098684495" height="78.23514098684495" width="81.03703978846102"><g><svg xmlns="http://www.w3.org/2000/svg" xmlns:xlink="http://www.w3.org/1999/xlink" version="1.1" x="0" y="0" viewBox="8.827238082885742 9.023650169372559 22.189666748046875 21.422447204589844" enable-background="new 0 0 39.121 39.36" xml:space="preserve" height="78.23514098684495" width="81.03703978846102" class="icon-icon-0" data-fill-palette-color="quaternary" id="icon-0"><path fill-rule="evenodd" clip-rule="evenodd" d="M17.147 9.44c15.811-3.823 19.194 19.912 4.45 20.974-5.323 0.382-13.531-2.587-12.713-12.075C9.223 14.411 12.003 10.684 17.147 9.44zM12.698 20.881c2.074 7.229 16.249 4.845 14.62-4.449-0.481-2.741-3.917-5.954-8.263-5.085C15.385 12.081 11.15 15.484 12.698 20.881z" fill="#ffffff" data-fill-palette-color="quaternary"></path></svg></g></svg></g><g></g></svg></g></svg></g></svg></g></svg></g><defs></defs></svg><rect width="342.85155851775386" height="342.85155851775386" fill="none" stroke="none" visibility="hidden"></rect></g></svg></g></svg>